# xmcd CD database file
#
# Track frame offsets:
#	150
#	16545
#	37702
#	56742
#	78512
#	94230
#	116217
#	129450
#	131912
#	150890
#	161320
#	177757
#	194702
#	210772
#
# Disc length: 3016 seconds
#
# Revision: 0
# Processed by: cddbd v1.5.1PL0 Copyright (c) Steve Scherf et al.
# Submitted via: CDex 1.51
#
DISCID=a90bc60e
DTITLE=DM3 - One Time Two Times Three Red Light
DYEAR=1994
DGENRE=Rock
TTITLE0=Foolish
TTITLE1=One Time Two Times Devastated
TTITLE2=Fall To Bits
TTITLE3=Far From Here
TTITLE4=Up In The Air
TTITLE5=Blue Thing
TTITLE6=Like This
TTITLE7=Bob
TTITLE8=I Don't Need You
TTITLE9=High Rotations
TTITLE10=Be Yourself Tonight
TTITLE11=180 Degrees
TTITLE12=Take It All
TTITLE13=Up In The Air (cofee house mix)
EXTD=YEAR: 1994
EXTT0=
EXTT1=
EXTT2=
EXTT3=
EXTT4=
EXTT5=
EXTT6=
EXTT7=
EXTT8=
EXTT9=
EXTT10=
EXTT11=
EXTT12=
EXTT13=
PLAYORDER=
